<svg xmlns="http://www.w3.org/2000/svg" width="800" height="200"><style>svg{font-family: Arial,SanArial,sans-serif;}</style><rect x="0" y="0" width="100" height="100" fill="rgb(0, 0, 0)"/><text x="50" y="50" fill="#ffffff" font-size="12" text-anchor="middle" dominant-baseline="middle">0</text><rect x="100" y="0" width="100" height="100" fill="rgb(0, 0, 170)"/><text x="150" y="50" fill="#ffffff" font-size="12" text-anchor="middle" dominant-baseline="middle">1</text><rect x="200" y="0" width="100" height="100" fill="rgb(0, 170, 0)"/><text x="250" y="50" fill="#ffffff" font-size="12" text-anchor="middle" dominant-baseline="middle">2</text><rect x="300" y="0" width="100" height="100" fill="rgb(0, 170, 170)"/><text x="350" y="50" fill="#ffffff" font-size="12" text-anchor="middle" dominant-baseline="middle">3</text><rect x="400" y="0" width="100" height="100" fill="rgb(170, 0, 0)"/><text x="450" y="50" fill="#ffffff" font-size="12" text-anchor="middle" dominant-baseline="middle">4</text><rect x="500" y="0" width="100" height="100" fill="rgb(170, 0, 170)"/><text x="550" y="50" fill="#ffffff" font-size="12" text-anchor="middle" dominant-baseline="middle">5</text><rect x="600" y="0" width="100" height="100" fill="rgb(170, 170, 0)"/><text x="650" y="50" fill="#000000" font-size="12" text-anchor="middle" dominant-baseline="middle">6</text><rect x="700" y="0" width="100" height="100" fill="rgb(170, 170, 170)"/><text x="750" y="50" fill="#000000" font-size="12" text-anchor="middle" dominant-baseline="middle">7</text><rect x="0" y="100" width="100" height="100" fill="rgb(85, 85, 85)"/><text x="50" y="150" fill="#ffffff" font-size="12" text-anchor="middle" dominant-baseline="middle">0-plus</text><rect x="100" y="100" width="100" height="100" fill="rgb(85, 85, 255)"/><text x="150" y="150" fill="#ffffff" font-size="12" text-anchor="middle" dominant-baseline="middle">1-plus</text><rect x="200" y="100" width="100" height="100" fill="rgb(85, 255, 85)"/><text x="250" y="150" fill="#000000" font-size="12" text-anchor="middle" dominant-baseline="middle">2-plus</text><rect x="300" y="100" width="100" height="100" fill="rgb(85, 255, 255)"/><text x="350" y="150" fill="#000000" font-size="12" text-anchor="middle" dominant-baseline="middle">3-plus</text><rect x="400" y="100" width="100" height="100" fill="rgb(255, 85, 85)"/><text x="450" y="150" fill="#000000" font-size="12" text-anchor="middle" dominant-baseline="middle">4-plus</text><rect x="500" y="100" width="100" height="100" fill="rgb(255, 85, 255)"/><text x="550" y="150" fill="#000000" font-size="12" text-anchor="middle" dominant-baseline="middle">5-plus</text><rect x="600" y="100" width="100" height="100" fill="rgb(255, 255, 85)"/><text x="650" y="150" fill="#000000" font-size="12" text-anchor="middle" dominant-baseline="middle">6-plus</text><rect x="700" y="100" width="100" height="100" fill="rgb(255, 255, 255)"/><text x="750" y="150" fill="#000000" font-size="12" text-anchor="middle" dominant-baseline="middle">7-plus</text></svg>